<?xml version="1.0" encoding="UTF-8"?>
<svg width="60px" height="60px" viewBox="0 0 60 60" version="1.1" xmlns="http://www.w3.org/2000/svg" xmlns:xlink="http://www.w3.org/1999/xlink">
    <!-- Generator: Sketch 58 (84663) - https://sketch.com -->
    <title>Camera</title>
    <desc>Created with Sketch.</desc>
    <g id="Page-1" stroke="none" stroke-width="1" fill="none" fill-rule="evenodd">
        <g id="11_Salesman-Prospective" transform="translate(-690.000000, -812.000000)">
            <g id="Group" transform="translate(600.000000, 812.000000)">
                <g id="Camera" transform="translate(90.000000, 0.000000)">
                    <circle id="Path" fill="#4F4F4F" cx="30" cy="30" r="30"></circle>
                    <path d="M45.7320004,37.1818546 L45.7299204,23.3212831 C45.7299204,23.1798381 45.6505309,23.0508735 45.5236464,22.9874313 C45.3974552,22.9246824 45.2466499,22.9378562 45.1325925,23.0224458 L36.3976694,29.5566509 L36.3976694,23.0720209 C36.3976694,21.879792 35.4269683,20.9090909 34.2347394,20.9090909 L16.710118,20.9090909 C15.5161556,20.9090909 14.5454545,21.879792 14.5454545,23.0720209 L14.5454545,37.5365072 C14.5454545,38.7280428 15.5161556,39.6980505 16.710118,39.6980505 L34.2347394,39.6980505 C35.4269683,39.6980505 36.3976694,38.7280428 36.3976694,37.5365072 L36.3976694,31.0484105 L45.1346726,37.5857356 C45.2008883,37.6353107 45.2792377,37.6599249 45.3586272,37.6599249 C45.3638274,37.6599249 45.3697209,37.6599249 45.3731877,37.6599249 C45.5794617,37.6599249 45.7465609,37.4921323 45.7465609,37.2865517 C45.7465609,37.250497 45.7413608,37.2154825 45.7320004,37.1818546 Z M35.650923,37.5365072 C35.650923,38.3165348 35.0154604,38.951304 34.2347394,38.951304 L16.710118,38.951304 C15.9283569,38.951304 15.2925477,38.3165348 15.2925477,37.5365072 L15.2925477,23.0720209 C15.2925477,22.2916466 15.9283569,21.6558374 16.710118,21.6558374 L34.2347394,21.6558374 C35.0158071,21.6558374 35.650923,22.2916466 35.650923,23.0720209 L35.650923,37.5365072 Z M36.6479716,30.3020107 L44.9828272,24.0666429 L44.9849073,36.5418853 L36.6479716,30.3020107 Z" id="Shape" stroke="#FFFFFF" fill="#FFFFFF" fill-rule="nonzero"></path>
                </g>
            </g>
        </g>
    </g>
</svg>