<?xml version="1.0" encoding="UTF-8"?>
<svg width="20px" height="20px" viewBox="0 0 20 20" version="1.1" xmlns="http://www.w3.org/2000/svg" xmlns:xlink="http://www.w3.org/1999/xlink">
    <!-- Generator: Sketch 58 (84663) - https://sketch.com -->
    <title>Shape</title>
    <desc>Created with Sketch.</desc>
    <g id="Page-1" stroke="none" stroke-width="1" fill="none" fill-rule="evenodd" opacity="0.5">
        <g id="16_Salesman-Prospective_Billing-Step_1" transform="translate(-885.000000, -841.000000)" fill="#FFFFFF" fill-rule="nonzero" stroke="#FFFFFF">
            <g id="Group-12" transform="translate(886.000000, 842.000000)">
                <g id="Group-5">
                    <g id="Group-2">
                        <path d="M12,18 L12,17.0322581 L15.9096774,17.0322581 C16.5096774,17.0322581 17.0322581,16.5096774 17.0322581,15.9096774 L17.0322581,12 L18,12 L18,15.9096774 C18,17.1096774 17.1096774,18 15.9096774,18 L12,18 Z M2.09032258,18 C0.890322581,18 0,17.1096774 0,15.9096774 L0,12 L0.967741935,12 L0.967741935,15.9096774 C0.967741935,16.5096774 1.49032258,17.0322581 2.09032258,17.0322581 L6,17.0322581 L6,18 L2.09032258,18 Z M17.0322581,6 L17.0322581,2.09032258 C17.0322581,1.49032258 16.5096774,0.967741935 15.9096774,0.967741935 L12,0.967741935 L12,0 L15.9096774,0 C17.1096774,0 18,0.890322581 18,2.09032258 L18,6 L17.0322581,6 Z M0,6 L0,2.09032258 C0,0.890322581 0.890322581,0 2.09032258,0 L6,0 L6,0.967741935 L2.09032258,0.967741935 C1.49032258,0.967741935 0.967741935,1.49032258 0.967741935,2.09032258 L0.967741935,6 L0,6 Z" id="Shape"></path>
                    </g>
                </g>
            </g>
        </g>
    </g>
</svg>