<?xml version="1.0" encoding="UTF-8"?>
<svg width="33px" height="31px" viewBox="0 0 33 31" version="1.1" xmlns="http://www.w3.org/2000/svg" xmlns:xlink="http://www.w3.org/1999/xlink">
    <!-- Generator: Sketch 58 (84663) - https://sketch.com -->
    <title>cash-on-delivery (2)</title>
    <desc>Created with Sketch.</desc>
    <g id="Page-1" stroke="none" stroke-width="1" fill="none" fill-rule="evenodd">
        <g id="18_Salesman-Prospective_Billing-Step_3" transform="translate(-1134.000000, -294.000000)">
            <g id="Side-Panel-Chat-Expand-view" transform="translate(1034.000000, 0.000000)">
                <g id="Side-Panel-(Chat)">
                    <g id="Group-20" transform="translate(40.000000, 235.000000)">
                        <g id="Group-19" transform="translate(0.000000, 41.000000)">
                            <g id="Group-12">
                                <g id="Group-17">
                                    <g id="Group-13" transform="translate(60.000000, 18.000000)">
                                        <g id="cash-on-delivery-(2)">
                                            <path d="M1.38916864,1.39010867 L1.38916864,11.8011576 C1.38916864,12.1983058 1.71029504,12.5194322 2.1074432,12.5194322 L4.6371328,12.5194322 C5.03428096,12.5194322 5.35540736,12.1983058 5.35540736,11.8011576 L5.35540736,1.39010867 C5.35540736,0.994271232 5.03428096,0.671834112 4.6371328,0.671834112 L2.1074432,0.671834112 C1.71029504,0.671834112 1.38916864,0.994271232 1.38916864,1.39010867 Z" id="Path" fill-rule="nonzero"></path>
                                            <g id="Group" fill="#3E5A77">
                                                <path d="M28.9885389,15.9696814 L18.7575828,21.5204495 C17.7278812,21.0166088 14.0486902,19.2167281 12.7463588,18.5795871 C10.3676641,17.4097695 7.61344819,17.2009718 5.07982643,17.9729859 L5.07982643,17.3908951 C5.07982643,16.7056507 4.52237722,16.1483325 3.83726387,16.1483325 L1.30770534,16.1483325 C0.622460928,16.1483325 0.065142784,16.7057818 0.065142784,17.3908951 L0.065142784,27.799978 C0.065142784,28.4852224 0.622592,29.0425405 1.30770534,29.0425405 L3.83726387,29.0425405 C4.52250829,29.0425405 5.07982643,28.4850913 5.07982643,27.799978 L5.07982643,27.3518428 C6.26550374,26.8702843 7.56665549,26.8255887 8.78012006,27.2328294 L17.1355668,30.3873393 C18.4898028,30.8993065 20.0447099,30.6956206 21.184512,29.82622 C21.2243579,29.7963356 21.2305183,29.7917481 23.1617331,28.0188682 C25.8075525,25.5902351 31.3129697,20.536492 31.7835182,20.1748644 C32.7822868,19.4073068 33.0614702,18.0039188 32.4327178,16.9103852 C31.7375119,15.7020324 30.1877166,15.2828641 28.9885389,15.9696814 Z M4.03125043,27.799978 C4.03125043,27.9069327 3.94421862,27.9939645 3.83726387,27.9939645 L1.30770534,27.9939645 C1.20075059,27.9939645 1.11371878,27.9069327 1.11371878,27.799978 L1.11371878,17.3908951 C1.11371878,17.2839404 1.20075059,17.1969085 1.30770534,17.1969085 L3.83726387,17.1969085 C3.94421862,17.1969085 4.03125043,17.2839404 4.03125043,17.3908951 L4.03125043,27.799978 Z M31.1446733,19.3433436 C30.6770084,19.702743 26.412843,23.6113101 22.4527647,27.2463299 C21.4487532,28.1680282 20.6496072,28.9016381 20.5396378,28.9992868 C19.6929126,29.6382628 18.5322701,29.7943695 17.5062385,29.4063964 L9.14161664,26.2484787 C9.13584947,26.2462505 9.12995123,26.2441533 9.12405299,26.2421873 C7.80166758,25.7958871 6.39251251,25.7987707 5.0799575,26.2353715 L5.0799575,19.0741217 C7.44279245,18.2650143 10.0479795,18.421121 12.2847232,19.5210772 C18.3217684,22.4746537 18.5166725,22.569812 19.5264512,23.0642156 C20.5937705,23.6016108 20.4621742,25.1591393 19.3419018,25.5291556 C19.0029496,25.6410911 18.6404045,25.6140902 18.3157391,25.4503813 L10.4864154,21.6204575 C10.2259753,21.4927933 9.91232,21.6009277 9.78504909,21.8609746 C9.65777818,22.1210214 9.76551936,22.43507 10.0255662,22.5623409 L17.8492539,26.3893811 C19.0286397,26.9843169 20.4606013,26.5085256 21.0529157,25.3339894 C21.3408809,24.7682826 21.3897708,24.1220977 21.1906724,23.51471 C20.9905254,22.9039145 20.5792215,22.4120013 19.9136379,22.0861563 L29.4993265,16.8853504 C30.2079017,16.4794204 31.1164928,16.7250493 31.5239956,17.4331003 C31.8917837,18.0732559 31.7288612,18.894422 31.1446733,19.3433436 L31.1446733,19.3433436 Z" id="Shape" fill-rule="nonzero"></path>
                                                <path d="M31.7853532,0.0065536 L11.130241,0.0065536 C10.4798618,0.0065536 9.95059302,0.535691264 9.95059302,1.1862016 L9.95059302,13.3865144 C9.95059302,14.0370248 10.4798618,14.5661624 11.130241,14.5661624 L31.7853532,14.5661624 C32.4357325,14.5661624 32.9650012,14.0370248 32.9650012,13.3865144 L32.9650012,1.1862016 C32.9650012,0.535691264 32.4358636,0.0065536 31.7853532,0.0065536 Z M31.9164252,13.3865144 C31.9164252,13.4588662 31.8575739,13.5175864 31.7853532,13.5175864 L11.130241,13.5175864 C11.0580204,13.5175864 10.999169,13.4588662 10.999169,13.3865144 L10.999169,1.1862016 C10.999169,1.11384986 11.0580204,1.0551296 11.130241,1.0551296 L31.7853532,1.0551296 C31.8575739,1.0551296 31.9164252,1.11384986 31.9164252,1.1862016 L31.9164252,13.3865144 Z" id="Shape" fill-rule="nonzero"></path>
                                                <path d="M29.3793956,2.52982067 L13.5360676,2.52982067 C12.8856883,2.52982067 12.3564196,3.05895834 12.3564196,3.70946867 L12.3564196,10.8631163 C12.3564196,11.5136266 12.8856883,12.0427643 13.5360676,12.0427643 L29.3793956,12.0427643 C30.0297748,12.0427643 30.5590436,11.5136266 30.5590436,10.8631163 L30.5590436,3.70946867 C30.5590436,3.05895834 30.0299059,2.52982067 29.3793956,2.52982067 Z M29.5104676,10.8631163 C29.5104676,10.935468 29.4516163,10.9941883 29.3793956,10.9941883 L13.5360676,10.9941883 C13.4638469,10.9941883 13.4049956,10.935468 13.4049956,10.8631163 L13.4049956,3.70946867 C13.4049956,3.63711693 13.4638469,3.57839667 13.5360676,3.57839667 L29.3793956,3.57839667 C29.4516163,3.57839667 29.5104676,3.63711693 29.5104676,3.70946867 L29.5104676,10.8631163 Z" id="Shape" fill-rule="nonzero"></path>
                                                <text id="₹" font-family="PingFangSC-Semibold, PingFang SC" font-size="6.4" font-weight="500">
                                                    <tspan x="18.88" y="10.2">₹</tspan>
                                                </text>
                                                <path d="M28.3774812,9.21960448 L28.0661852,9.21960448 C27.7766472,9.21960448 27.5418972,9.45435443 27.5418972,9.74389248 C27.5418972,10.0334305 27.7766472,10.2681805 28.0661852,10.2681805 L28.3774812,10.2681805 C28.6670193,10.2681805 28.9017692,10.0334305 28.9017692,9.74389248 C28.9017692,9.45435443 28.6670193,9.21960448 28.3774812,9.21960448 Z" id="Path" fill-rule="nonzero"></path>
                                                <path d="M26.1001052,9.21960448 L24.5272412,9.21960448 C24.2377032,9.21960448 24.0029532,9.45435443 24.0029532,9.74389248 C24.0029532,10.0334305 24.2377032,10.2681805 24.5272412,10.2681805 L26.1001052,10.2681805 C26.3896433,10.2681805 26.6243932,10.0334305 26.6243932,9.74389248 C26.6243932,9.45435443 26.3896433,9.21960448 26.1001052,9.21960448 Z" id="Path" fill-rule="nonzero"></path>
                                            </g>
                                        </g>
                                    </g>
                                </g>
                            </g>
                        </g>
                    </g>
                </g>
            </g>
        </g>
    </g>
</svg>