<?xml version="1.0" encoding="UTF-8"?>
<svg width="23px" height="21px" viewBox="0 0 23 21" version="1.1" xmlns="http://www.w3.org/2000/svg" xmlns:xlink="http://www.w3.org/1999/xlink">
    <!-- Generator: Sketch 58 (84663) - https://sketch.com -->
    <title>contact-information</title>
    <desc>Created with Sketch.</desc>
    <g id="Page-1" stroke="none" stroke-width="1" fill="none" fill-rule="evenodd">
        <g id="16_Salesman-Prospective_Billing-Step_1" transform="translate(-1232.000000, -105.000000)" fill="#3E5A77" fill-rule="nonzero">
            <g id="Side-Panel-Chat-Expand-view" transform="translate(268.000000, 0.000000)">
                <g id="Side-Panel-(Chat)">
                    <g id="Group-11" transform="translate(766.000000, 81.000000)">
                        <g id="Step-navigation" transform="translate(42.000000, 17.000000)">
                            <g id="Group-6">
                                <g id="Group-5" transform="translate(0.000000, 7.000000)">
                                    <g id="Group-3">
                                        <g id="contact-information" transform="translate(156.000000, 0.000000)">
                                            <path d="M20.6041667,0.0256054783 C21.871993,0.0260359888 22.9096088,1.0109811 22.9944028,2.25743434 L23,2.42143881 L23,17.9464388 C22.999426,19.2142652 22.0146124,20.2518809 20.7681704,20.336675 L20.6041667,20.3422721 L2.39583333,20.3422721 C1.12800699,20.3416981 0.0903912346,19.3568846 0.00559717762,18.1104425 L0,17.9464388 L0,2.42143881 C0.000574001736,1.15361247 0.985387576,0.1158592 2.23182961,0.0311854669 L2.39583333,0.0256054783 L20.6041667,0.0256054783 Z M22.0416667,5.37774738 L0.958333333,5.37774738 L0.958333333,17.9464388 C0.960447313,18.6926704 1.52960279,19.3055975 2.25757673,19.3769971 L2.39583333,19.3839388 L20.6041667,19.3839388 C21.3503983,19.3818248 21.9633254,18.8126693 22.0347249,18.0846954 L22.0416667,17.9464388 L22.0416667,5.37774738 Z M6.87125,13.3033138 C7.88498696,13.2958268 8.85769529,13.7025195 9.56416667,14.4293555 C10.2829167,15.1623307 10.6758333,16.1589974 10.6758333,17.2420638 C10.6751678,17.4769886 10.5059066,17.6722786 10.2826817,17.7133019 L10.1966667,17.7212305 L3.54583333,17.7212305 C3.28154298,17.7204818 3.06741536,17.5063542 3.06666667,17.2420638 C3.06666667,16.1589974 3.45958333,15.1623307 4.17833333,14.4293555 C4.88480471,13.7025195 5.85766277,13.2958268 6.87125,13.3033138 Z M19.4254167,16.2837305 C19.6900065,16.2837305 19.9045833,16.4981576 19.9045833,16.7628971 C19.9045833,16.9980881 19.7350412,17.1937626 19.5115352,17.2343423 L19.4254167,17.2420638 L13.3639583,17.2420638 C13.0993685,17.2420638 12.8847917,17.027487 12.8847917,16.7628971 C12.8847917,16.5275731 13.0543338,16.3320021 13.2778398,16.2914471 L13.3639583,16.2837305 L19.4254167,16.2837305 Z M6.87125,14.2616471 C6.11686196,14.2616471 5.39376952,14.5635221 4.86354167,15.1001888 C4.471956,15.5028219 4.20530864,16.0083871 4.0932566,16.5557824 L4.05854167,16.7628971 L9.68395833,16.7628971 C9.60100262,16.1365365 9.31859375,15.55375 8.87895833,15.1001888 C8.34873048,14.5635221 7.62563804,14.2616471 6.87125,14.2616471 Z M19.4254167,13.4949805 C19.6900065,13.4949805 19.9045833,13.7095573 19.9045833,13.9741471 C19.9045833,14.209205 19.7350412,14.404983 19.5115352,14.4455873 L19.4254167,14.4533138 L13.3639583,14.4533138 C13.0993685,14.4533138 12.8847917,14.2385872 12.8847917,13.9741471 C12.8847917,13.7389562 13.0543338,13.5432817 13.2778398,13.502702 L13.3639583,13.4949805 L19.4254167,13.4949805 Z M6.87125,7.43352214 C8.23942056,7.43352214 9.34854167,8.54249348 9.34854167,9.91081381 C9.34854167,11.2788346 8.23942056,12.3881055 6.87125,12.3881055 C5.50382813,12.3861589 4.39575521,11.278086 4.39395833,9.91081381 C4.39395833,8.54249348 5.50307944,7.43352214 6.87125,7.43352214 Z M19.4254167,10.7060807 C19.6900065,10.7060807 19.9045833,10.9208073 19.9045833,11.1852474 C19.9045833,11.449987 19.6900065,11.664414 19.4254167,11.664414 L19.4254167,11.664414 L13.3639583,11.664414 C13.0993685,11.664414 12.8847917,11.449987 12.8847917,11.1852474 C12.8847917,10.9208073 13.0993685,10.7060807 13.3639583,10.7060807 L13.3639583,10.7060807 Z M6.87125,8.39649738 C6.03240887,8.3969466 5.35259113,9.07676431 5.35229167,9.91545571 C5.35229167,10.7544466 6.03225911,11.4345638 6.87125,11.4345638 C7.71009113,11.4345638 8.39020833,10.7544466 8.39020833,9.91545571 C8.39020833,9.07661458 7.71009113,8.39649738 6.87125,8.39649738 Z M13.3639583,7.91733071 L19.4254167,7.91733071 C19.6900065,7.91733071 19.9045833,8.13190756 19.9045833,8.39649738 C19.9045833,8.63182145 19.7350412,8.82739244 19.5115352,8.86794742 L19.4254167,8.87566404 L13.3639583,8.87566404 C13.0993685,8.87566404 12.8847917,8.66123696 12.8847917,8.39649738 C12.8847917,8.16130643 13.0543338,7.9656319 13.2778398,7.92505226 L13.3639583,7.91733071 L19.4254167,7.91733071 Z M20.6041667,0.983938812 L2.39583333,0.983938812 C1.64960171,0.986052755 1.0366746,1.55520826 0.965275058,2.28318221 L0.958333333,2.42143881 L0.958333333,4.41941404 L22.0416667,4.41941404 L22.0416667,2.42143881 C22.0394206,1.62856771 21.3970378,0.986184877 20.6041667,0.983938812 Z" id="Combined-Shape"></path>
                                        </g>
                                    </g>
                                </g>
                            </g>
                        </g>
                    </g>
                </g>
            </g>
        </g>
    </g>
</svg>