<?xml version="1.0" encoding="UTF-8"?>
<svg width="32px" height="26px" viewBox="0 0 32 26" version="1.1" xmlns="http://www.w3.org/2000/svg" xmlns:xlink="http://www.w3.org/1999/xlink">
    <!-- Generator: Sketch 58 (84663) - https://sketch.com -->
    <title>credit-card (2)</title>
    <desc>Created with Sketch.</desc>
    <g id="Page-1" stroke="none" stroke-width="1" fill="none" fill-rule="evenodd">
        <g id="18_Salesman-Prospective_Billing-Step_3" transform="translate(-1137.000000, -379.000000)" fill="#3E5A77" fill-rule="nonzero">
            <g id="Side-Panel-Chat-Expand-view" transform="translate(1034.000000, 0.000000)">
                <g id="Side-Panel-(Chat)">
                    <g id="Group-20" transform="translate(40.000000, 235.000000)">
                        <g id="Group-19" transform="translate(0.000000, 41.000000)">
                            <g id="Group-18" transform="translate(0.000000, 83.000000)">
                                <g id="Group-15" transform="translate(63.000000, 20.000000)">
                                    <g id="credit-card-(2)">
                                        <path d="M26.2826872,0.0008624 C27.439104,0.0008624 28.38528,0.9470384 28.38528,2.1034552 L28.38528,2.1034552 L28.38528,4.631396 L29.646848,4.7842872 C30.2250872,4.836832 30.6981752,5.0996792 31.066112,5.5727672 C31.4340488,5.9932488 31.5917448,6.571488 31.5392,7.0971824 L31.5392,7.0971824 L29.96224,23.9706544 C29.8571504,24.9693752 28.9109744,25.7578552 27.8596472,25.7578552 L27.8596472,25.7578552 L27.6494064,25.7578552 L3.3642224,23.0244784 C2.2843744,22.926288 1.4798168,22.0031504 1.5063048,20.9398112 C0.6379912,20.6810912 -4.61852778e-14,19.8738232 -4.61852778e-14,18.9243824 L-4.61852778e-14,18.9243824 L-4.61852778e-14,2.1034552 C-4.61852778e-14,0.9469768 0.946176,0.0008624 2.1025928,0.0008624 L2.1025928,0.0008624 Z M28.3852184,5.625312 L28.3852184,18.9243824 C28.3852184,20.0807992 27.4390424,21.0269752 26.2826256,21.0269752 L26.2826256,21.0269752 L2.5756808,21.0269752 C2.6282256,21.5000632 2.996224,21.9206064 3.5218568,21.9731512 L3.5218568,21.9731512 L27.754496,24.706528 C28.3326736,24.7590728 28.858368,24.3385912 28.9109128,23.760352 L28.9109128,23.760352 L30.4878728,6.88688 C30.5404792,6.6240328 30.435328,6.3086408 30.2775704,6.0984 C30.1198744,5.8881592 29.8570888,5.7304632 29.5942416,5.7304632 L29.5942416,5.7304632 L28.3852184,5.625312 Z M27.3340144,7.8856008 L1.0513272,7.8856008 L1.0513272,18.9243208 C1.0513272,19.50256 1.5244152,19.975648 2.1026544,19.975648 L2.1026544,19.975648 L26.2826872,19.975648 C26.8609264,19.975648 27.3340144,19.50256 27.3340144,18.9243208 L27.3340144,18.9243208 L27.3340144,7.8856008 Z M25.23136,12.0909096 C25.5117084,12.0909096 25.7089745,12.2570258 25.7493503,12.5154504 L25.7569928,12.6165424 L25.7569928,17.3474224 C25.7569928,17.6277708 25.5908766,17.8250369 25.332452,17.8654127 L25.23136,17.8730552 L16.8209272,17.8730552 C16.5405788,17.8730552 16.3433127,17.7068903 16.3029369,17.4484982 L16.2952944,17.3474224 L16.2952944,12.6165424 C16.2952944,12.336194 16.4614106,12.1389279 16.7198352,12.0985521 L16.8209272,12.0909096 L25.23136,12.0909096 Z M24.7057272,13.1421752 L17.34656,13.1421752 L17.34656,16.821728 L24.7057272,16.821728 L24.7057272,13.1421752 Z M9.46176,12.0909096 C9.777152,12.0909096 9.9873928,12.3011504 9.9873928,12.6165424 C9.9873928,12.8968908 9.82127661,13.0941569 9.56285202,13.1345327 L9.46176,13.1421752 L2.6282872,13.1421752 C2.3128952,13.1421752 2.1026544,12.9319344 2.1026544,12.6165424 C2.1026544,12.336194 2.26877059,12.1389279 2.52719518,12.0985521 L2.6282872,12.0909096 L9.46176,12.0909096 Z M11.5643528,12.090848 L13.1413128,12.090848 C13.4567048,12.090848 13.6669456,12.3010888 13.6669456,12.6164808 C13.6669456,12.8968292 13.5008294,13.0940953 13.2424048,13.1344711 L13.1413128,13.1421136 L11.5643528,13.1421136 C11.2489608,13.1421136 11.03872,12.9318728 11.03872,12.6164808 C11.03872,12.3361324 11.2048362,12.1388663 11.4632608,12.0984905 L11.5643528,12.090848 L13.1413128,12.090848 Z M6.8335344,9.9882552 C7.1489264,9.9882552 7.3591672,10.198496 7.3591672,10.513888 C7.3591672,10.7942364 7.19305101,10.9915025 6.93462642,11.0318783 L6.8335344,11.0395208 L2.6282872,11.0395208 C2.3128952,11.0395208 2.1026544,10.82928 2.1026544,10.513888 C2.1026544,10.2335396 2.26877059,10.0362735 2.52719518,9.99589774 L2.6282872,9.9882552 L6.8335344,9.9882552 Z M13.1413744,9.9882552 C13.4567664,9.9882552 13.6670072,10.198496 13.6670072,10.513888 C13.6670072,10.7942364 13.500891,10.9915025 13.2424664,11.0318783 L13.1413744,11.0395208 L8.9361272,11.0395208 C8.6207352,11.0395208 8.4104944,10.82928 8.4104944,10.513888 C8.4104944,10.2335396 8.57661059,10.0362735 8.83503518,9.99589774 L8.9361272,9.9882552 L13.1413744,9.9882552 Z M27.3340144,3.6804152 L1.0513272,3.6804152 L1.0513272,6.8343352 L27.3340144,6.8343352 L27.3340144,3.6804152 Z M26.2826256,1.052128 L2.1025928,1.052128 C1.5244152,1.052128 1.0513272,1.525216 1.0513272,2.1034552 L1.0513272,2.1034552 L1.0513272,2.629088 L27.3339528,2.629088 L27.3339528,2.1034552 C27.3339528,1.525216 26.8608648,1.052128 26.2826256,1.052128 L26.2826256,1.052128 Z" id="Combined-Shape"></path>
                                    </g>
                                </g>
                            </g>
                        </g>
                    </g>
                </g>
            </g>
        </g>
    </g>
</svg>