<?xml version="1.0" encoding="UTF-8"?>
<svg width="26px" height="17px" viewBox="0 0 26 17" version="1.1" xmlns="http://www.w3.org/2000/svg" xmlns:xlink="http://www.w3.org/1999/xlink">
    <!-- Generator: Sketch 58 (84663) - https://sketch.com -->
    <title>credit-card</title>
    <desc>Created with Sketch.</desc>
    <g id="Page-1" stroke="none" stroke-width="1" fill="none" fill-rule="evenodd">
        <g id="16_Salesman-Prospective_Billing-Step_1" transform="translate(-1352.000000, -109.000000)" fill="#3E5A77" fill-rule="nonzero">
            <g id="Side-Panel-Chat-Expand-view" transform="translate(268.000000, 0.000000)">
                <g id="Side-Panel-(Chat)">
                    <g id="Group-11" transform="translate(766.000000, 81.000000)">
                        <g id="Step-navigation" transform="translate(42.000000, 17.000000)">
                            <g id="Group-6">
                                <g id="credit-card" transform="translate(276.000000, 11.000000)">
                                    <path d="M22.474683,0.016317 C23.859734,0.016317 24.9973385,1.1006957 25.0827977,2.46471048 L25.087951,2.629683 L25.087,3.664317 L25.088049,3.675 L25.088049,6.811 C25.088049,6.81441031 25.0880163,6.81781302 25.0879511,6.82120785 L25.087951,14.128366 C25.087951,15.513417 24.0035723,16.6510669 22.6396011,16.7365295 L22.474634,16.741683 L2.613317,16.741683 C1.22826604,16.741683 0.0906161494,15.6573043 0.00515351144,14.2933331 L6.69686528e-13,14.128366 L6.69686528e-13,2.629683 C6.69686528e-13,1.24458492 1.0843787,0.106933222 2.44834992,0.0214705142 L2.613317,0.016317 L22.474683,0.016317 Z M24.042,7.333317 L1.045,7.333317 L1.045317,14.128317 C1.045317,14.9447958 1.67281539,15.6176542 2.47081639,15.6898962 L2.613317,15.696317 L22.474683,15.696317 C23.2911618,15.696317 23.9640202,15.0688186 24.0362622,14.2708176 L24.042683,14.128317 L24.042,7.333317 Z M3.658683,12.560317 L9.930683,12.560317 C10.219195,12.560317 10.453366,12.794488 10.453366,13.083 C10.453366,13.3394551 10.268342,13.5529741 10.0245944,13.5972567 L9.930683,13.605683 L3.658683,13.605683 C3.370171,13.605683 3.136,13.371512 3.136,13.083 C3.136,12.8265449 3.321024,12.6130259 3.56477164,12.5687433 L3.658683,12.560317 L9.930683,12.560317 Z M20.384,9.424317 C21.248507,9.424317 21.952,10.127859 21.952,10.992317 L21.952,10.992317 L21.952,12.037634 C21.952,12.902141 21.248507,13.605634 20.384,13.605634 L20.384,13.605634 L19.338683,13.605634 C18.474176,13.605634 17.770683,12.902141 17.770683,12.037634 L17.770683,12.037634 L17.770683,10.992317 C17.770683,10.12781 18.474176,9.424317 19.338683,9.424317 L19.338683,9.424317 Z M20.384,10.469683 L19.338683,10.469683 C19.050171,10.469683 18.816,10.703854 18.816,10.992366 L18.816,10.992366 L18.816,12.037683 C18.816,12.326195 19.050171,12.560366 19.338683,12.560366 L19.338683,12.560366 L20.384,12.560366 C20.672512,12.560366 20.906683,12.326195 20.906683,12.037683 L20.906683,12.037683 L20.906683,10.992366 C20.906683,10.703854 20.672512,10.469683 20.384,10.469683 L20.384,10.469683 Z M9.930683,10.469683 C10.219195,10.469683 10.453366,10.703805 10.453366,10.992317 C10.453366,11.2487721 10.268342,11.4622911 10.0245944,11.5065737 L9.930683,11.515 L3.658683,11.515 C3.370171,11.515 3.136,11.280878 3.136,10.992366 C3.136,10.7359109 3.321024,10.5223919 3.56477164,10.4781093 L3.658683,10.469683 L9.930683,10.469683 Z M24.042683,4.197634 L1.045317,4.197634 L1.045317,6.288317 L24.042683,6.288317 L24.042683,4.197634 Z M22.474634,1.061683 L2.613317,1.061683 C1.79683817,1.061683 1.12397985,1.68918139 1.05173781,2.48718239 L1.045317,2.629683 L1.045,3.152317 L24.042,3.152317 L24.042683,2.629683 C24.042683,1.81320417 23.4151409,1.14034585 22.617135,1.06810381 L22.474634,1.061683 Z" id="Combined-Shape"></path>
                                </g>
                            </g>
                        </g>
                    </g>
                </g>
            </g>
        </g>
    </g>
</svg>