<?xml version="1.0" encoding="UTF-8"?>
<svg width="60px" height="60px" viewBox="0 0 60 60" version="1.1" xmlns="http://www.w3.org/2000/svg" xmlns:xlink="http://www.w3.org/1999/xlink">
    <!-- Generator: Sketch 58 (84663) - https://sketch.com -->
    <title>Camera Copy</title>
    <desc>Created with Sketch.</desc>
    <g id="Page-1" stroke="none" stroke-width="1" fill="none" fill-rule="evenodd">
        <g id="11_Salesman-Prospective" transform="translate(-780.000000, -812.000000)">
            <g id="Group" transform="translate(600.000000, 812.000000)">
                <g id="Camera-Copy" transform="translate(180.000000, 0.000000)">
                    <circle id="Path" fill="#D0021B" cx="30" cy="30" r="30"></circle>
                    <g id="telephone" transform="translate(30.500000, 31.500000) rotate(134.000000) translate(-30.500000, -31.500000) translate(17.000000, 18.000000)" fill="#FFFFFF" fill-rule="nonzero">
                        <path d="M5.47142843,17.9477828 C8.14459857,21.1311645 11.3625114,23.6375881 15.0353123,25.4111065 C16.4336724,26.0712806 18.3037683,26.8545379 20.3872685,26.9888106 C20.5164343,26.9944053 20.6399842,27 20.76915,27 C22.16751,27 23.2906907,26.5188562 24.206083,25.5285951 C24.2116989,25.5230004 24.2229307,25.511811 24.2285466,25.5006216 C24.554269,25.108993 24.9249187,24.7565271 25.312416,24.3816826 C25.5763635,24.1299213 25.8459269,23.8669706 26.1042584,23.5984252 C27.3004459,22.3564028 27.3004459,20.7786987 26.0930266,19.5758392 L22.7178685,16.2134273 C22.1450464,15.6203896 21.4599061,15.3070866 20.7410705,15.3070866 C20.0222348,15.3070866 19.3314786,15.6203896 18.7418088,16.2078326 L16.7313153,18.2107335 C16.5459904,18.1044343 16.3550497,18.0093245 16.1753408,17.9198094 C15.9507046,17.8079155 15.7429162,17.7016162 15.5575914,17.5841276 C13.7268068,16.4260257 12.0644993,14.9154579 10.4751986,12.9740986 C9.67212436,11.9614588 9.13299761,11.1110651 8.75673207,10.2438873 C9.28462701,9.76833817 9.77882653,9.27041028 10.2561783,8.78367178 C10.4246555,8.61023622 10.5987485,8.43680066 10.7728415,8.26336511 C11.3793591,7.659138 11.7050815,6.95980108 11.7050815,6.24927476 C11.7050815,5.53874845 11.384975,4.83941152 10.7728415,4.23518442 L9.09930219,2.56796519 C8.90274556,2.37215085 8.71742074,2.18193121 8.52648002,1.98611687 C8.15583038,1.60567758 7.76833302,1.2140489 7.38645158,0.861583092 C6.8080135,0.296518856 6.12848916,0 5.40965349,0 C4.69643373,0 4.01129348,0.296518856 3.41039179,0.867177787 L1.31004382,2.95959387 C0.546280927,3.72047244 0.113856346,4.64359718 0.0240018876,5.712184 C-0.0827002817,7.0493162 0.164399479,8.47036884 0.804612495,10.1879403 C1.78739563,12.8454206 3.2699942,15.3126813 5.47142843,17.9477828 Z M1.39428238,5.82967261 C1.46167322,5.08557812 1.74808431,4.46456693 2.28721106,3.92747617 L4.37632722,1.84624948 C4.70204963,1.53294654 5.06146746,1.37070037 5.40965349,1.37070037 C5.75222361,1.37070037 6.10040964,1.53294654 6.42051615,1.85743887 C6.79678169,2.20430999 7.15058362,2.56796519 7.53246507,2.95399917 C7.72340579,3.14981351 7.91996242,3.34562785 8.11651905,3.54703688 L9.79005834,5.21425611 C10.1382444,5.56112723 10.3179533,5.91359304 10.3179533,6.26046415 C10.3179533,6.60733527 10.1382444,6.95980108 9.79005834,7.30667219 C9.61596533,7.48010775 9.44187231,7.659138 9.2677793,7.83257356 C8.74550026,8.35847493 8.25691664,8.85640282 7.71778989,9.33195193 C7.70655808,9.34314132 7.70094218,9.34873601 7.68971037,9.3599254 C7.22359037,9.82428512 7.29659712,10.2662661 7.40891519,10.6019478 C7.41453109,10.6187319 7.420147,10.6299213 7.4257629,10.6467053 C7.85818748,11.681724 8.45908917,12.6663904 9.39694508,13.8412764 C11.0817162,15.9113137 12.8563417,17.5169913 14.8106762,18.753419 C15.0521601,18.9100705 15.3104916,19.0331538 15.5519755,19.156237 C15.7766116,19.268131 15.9844001,19.3744302 16.1697249,19.4919188 C16.1921885,19.5031082 16.2090362,19.5142976 16.2314998,19.5254869 C16.4168246,19.6205968 16.5965336,19.6653543 16.7762425,19.6653543 C17.2255148,19.6653543 17.5175418,19.3800249 17.6130121,19.284915 L19.7133601,17.192499 C20.0390825,16.8680066 20.3928844,16.6945711 20.7410705,16.6945711 C21.1678791,16.6945711 21.5160652,16.9575218 21.7350854,17.192499 L25.1214753,20.5605056 C25.7953837,21.231869 25.7897678,21.9591794 25.1046276,22.6697058 C24.8687596,22.9214671 24.6216599,23.162039 24.3577124,23.4138002 C23.9645992,23.7942395 23.5546382,24.1858682 23.1839885,24.6278492 C22.5381596,25.3215914 21.7687808,25.6460837 20.7747659,25.6460837 C20.6792955,25.6460837 20.5782093,25.640489 20.4827389,25.6348943 C18.6407225,25.5174057 16.9278719,24.8012847 15.6418299,24.1914629 C12.1487379,22.5074596 9.08245448,20.1185247 6.53845012,17.0861998 C4.44371806,14.5741815 3.03412625,12.2355988 2.10188624,9.7291753 C1.52344816,8.19063407 1.30442792,6.95420638 1.39428238,5.82967261 Z" id="Shape"></path>
                    </g>
                </g>
            </g>
        </g>
    </g>
</svg>