<svg xmlns="http://www.w3.org/2000/svg" id="logo" width="112" height="35" viewBox="0 0 112 35">
    <defs>
        <style>
            .cls-1{fill:#ed357e}.cls-2{fill:#fefefe}
        </style>
    </defs>
    <path id="studioz" d="M55.144 15a6.471 6.471 0 0 1-2.308-.392 4.88 4.88 0 0 1-2.9-2.888 6.391 6.391 0 0 1-.4-2.311 6.468 6.468 0 0 1 .4-2.321 5.007 5.007 0 0 1 1.133-1.775 5.127 5.127 0 0 1 1.764-1.135 6.316 6.316 0 0 1 2.308-.4 6.4 6.4 0 0 1 2.319.4 5.093 5.093 0 0 1 1.774 1.135 5.023 5.023 0 0 1 1.134 1.775 6.487 6.487 0 0 1 .4 2.321 6.409 6.409 0 0 1-.4 2.311 5.042 5.042 0 0 1-1.134 1.764 4.969 4.969 0 0 1-1.774 1.124 6.56 6.56 0 0 1-2.316.392zm0-9.017a2.438 2.438 0 0 0-1.259.3 2.4 2.4 0 0 0-.808.773 3.186 3.186 0 0 0-.43 1.093 6.289 6.289 0 0 0-.126 1.259 6.131 6.131 0 0 0 .126 1.248 3.289 3.289 0 0 0 .43 1.093 2.283 2.283 0 0 0 .808.774 2.511 2.511 0 0 0 1.259.289 2.573 2.573 0 0 0 1.27-.289 2.266 2.266 0 0 0 .819-.774 3.306 3.306 0 0 0 .43-1.093 6.194 6.194 0 0 0 .126-1.248 6.354 6.354 0 0 0-.126-1.259 3.2 3.2 0 0 0-.43-1.093 2.382 2.382 0 0 0-.819-.773 2.5 2.5 0 0 0-1.27-.3zM36.042 15a4.727 4.727 0 0 1-2.141-.464 4.291 4.291 0 0 1-1.522-1.259 5.685 5.685 0 0 1-.9-1.825 7.571 7.571 0 0 1-.3-2.146 7.11 7.11 0 0 1 .3-2.074 5.381 5.381 0 0 1 .9-1.764 4.408 4.408 0 0 1 3.6-1.692 4.346 4.346 0 0 1 1.836.4 3.194 3.194 0 0 1 1.375 1.189h.042V0h2.981v14.732H39.38V13.37h-.042a3.072 3.072 0 0 1-1.374 1.248 4.673 4.673 0 0 1-1.922.382zm.734-9.017a2.465 2.465 0 0 0-1.238.289 2.312 2.312 0 0 0-.808.764 3.338 3.338 0 0 0-.441 1.083 5.818 5.818 0 0 0-.136 1.269 5.369 5.369 0 0 0 .147 1.238 3.369 3.369 0 0 0 .472 1.1 2.606 2.606 0 0 0 .818.784 2.255 2.255 0 0 0 1.186.3A2.4 2.4 0 0 0 38 12.524a2.226 2.226 0 0 0 .788-.774 3.454 3.454 0 0 0 .42-1.1 6.443 6.443 0 0 0 .125-1.279 6.3 6.3 0 0 0-.121-1.271 3.091 3.091 0 0 0-.431-1.073 2.413 2.413 0 0 0-.787-.753 2.352 2.352 0 0 0-1.217-.291zM23.153 15a5.328 5.328 0 0 1-1.963-.31 2.841 2.841 0 0 1-1.207-.877 3.421 3.421 0 0 1-.619-1.382 8.493 8.493 0 0 1-.178-1.8V4.064h2.981v6.025a3.708 3.708 0 0 0 .419 1.971 1.644 1.644 0 0 0 1.49.65A2.09 2.09 0 0 0 25.84 12a3.917 3.917 0 0 0 .546-2.342V4.064h2.981v10.668h-2.834v-1.486h-.063A3.349 3.349 0 0 1 25 14.587a4.411 4.411 0 0 1-1.847.413zM5.1 15a9.164 9.164 0 0 1-1.848-.186 4.939 4.939 0 0 1-1.604-.614A3.385 3.385 0 0 1 0 11.265h2.834a1.6 1.6 0 0 0 .2.815 1.737 1.737 0 0 0 .515.557 2.23 2.23 0 0 0 .724.319 3.509 3.509 0 0 0 .851.1 3.234 3.234 0 0 0 .661-.073 2.262 2.262 0 0 0 .629-.227 1.423 1.423 0 0 0 .472-.412 1.075 1.075 0 0 0 .189-.65c0-.438-.3-.772-.892-.991a18.148 18.148 0 0 0-2.488-.66c-.434-.1-.861-.211-1.27-.341a4.39 4.39 0 0 1-1.1-.516 2.549 2.549 0 0 1-.777-.8A2.264 2.264 0 0 1 .252 7.2a3.174 3.174 0 0 1 .41-1.692 3.006 3.006 0 0 1 1.08-1.041 4.832 4.832 0 0 1 1.511-.537 9.575 9.575 0 0 1 1.722-.155 8.745 8.745 0 0 1 1.711.166 4.576 4.576 0 0 1 1.48.557A3.386 3.386 0 0 1 9.247 5.54a3.473 3.473 0 0 1 .513 1.64H6.927a1.282 1.282 0 0 0-.651-1.145 3.032 3.032 0 0 0-1.386-.3 5.258 5.258 0 0 0-.545.031 1.844 1.844 0 0 0-.535.134 1.108 1.108 0 0 0-.41.3.786.786 0 0 0-.167.527.8.8 0 0 0 .293.639 2.274 2.274 0 0 0 .767.4 9.744 9.744 0 0 0 1.081.279c.41.084.827.174 1.238.268a12.81 12.81 0 0 1 1.27.351 4.21 4.21 0 0 1 1.1.546 2.669 2.669 0 0 1 .776.846 2.459 2.459 0 0 1 .294 1.248 3.367 3.367 0 0 1-.43 1.764A3.434 3.434 0 0 1 8.5 14.216a4.688 4.688 0 0 1-1.585.608A9.429 9.429 0 0 1 5.1 15zm10.915-.166a8.874 8.874 0 0 1-1.312-.093 3.145 3.145 0 0 1-1.092-.361 1.951 1.951 0 0 1-.745-.763 2.7 2.7 0 0 1-.273-1.3V6.025h-1.804V4.064h1.805V.867h2.981v3.2h2.183v1.96h-2.183v5.282a1.419 1.419 0 0 0 .252.99 1.483 1.483 0 0 0 1.008.248c.163 0 .326-.007.482-.021s.3-.035.441-.062v2.27a7.36 7.36 0 0 1-.84.082c-.292.012-.596.019-.902.019zM72 14.732h-9.971v-2.208l5.647-6.252h-5.227V4.064H71.6v2.208l-5.647 6.252H72v2.207zm-24.476 0h-2.98V4.064h2.981v10.667zm0-12.318h-2.98V0h2.981v2.413z" transform="translate(40 10)"/>
    <g id="Group-3">
        <path id="Fill-1" d="M35 17.5A17.5 17.5 0 1 1 17.5 0 17.5 17.5 0 0 1 35 17.5" class="cls-1"/>
        <path id="Fill-4" d="M0 6.3V4.249h1.787v-.863a3.388 3.388 0 0 1 .9-2.437A3.607 3.607 0 0 1 5.423 0q.4 0 .8.032T7 .086v2.286a8.924 8.924 0 0 0-1.093-.065 1.128 1.128 0 0 0-.873.292 1.459 1.459 0 0 0-.263.982v.668h2.06V6.3H4.772v9.1H1.787V6.3z" class="cls-2" transform="translate(9.8 9.8)"/>
        <path id="Fill-6" d="M3.875 14V4.956H0V2.92a7.71 7.71 0 0 0 1.574-.12 4.227 4.227 0 0 0 1.365-.483 3.3 3.3 0 0 0 1.024-.914A3.157 3.157 0 0 0 4.513 0H7v14z" class="cls-2" transform="translate(18.2 11.2)"/>
    </g>
</svg>