<?xml version="1.0" encoding="UTF-8"?>
<svg width="60px" height="60px" viewBox="0 0 60 60" version="1.1" xmlns="http://www.w3.org/2000/svg" xmlns:xlink="http://www.w3.org/1999/xlink">
    <!-- Generator: Sketch 58 (84663) - https://sketch.com -->
    <title>Mic on</title>
    <desc>Created with Sketch.</desc>
    <g id="Page-1" stroke="none" stroke-width="1" fill="none" fill-rule="evenodd">
        <g id="11_Salesman-Prospective" transform="translate(-600.000000, -812.000000)">
            <g id="Group" transform="translate(600.000000, 812.000000)">
                <g id="Mic-on">
                    <circle id="Path" fill="#4F4F4F" cx="30" cy="30" r="30"></circle>
                    <g id="Group-16" transform="translate(20.909091, 13.636364)" fill="#FFFFFF" fill-rule="nonzero" stroke="#F9F9F9">
                        <path d="M15.0504082,32.481665 L4.04127668,32.481665 C3.81766219,32.481665 3.63636364,32.3328434 3.63636364,32.1499234 C3.63636364,31.9663661 3.81766219,31.8181818 4.04127668,31.8181818 L15.05002,31.8181818 C15.2736345,31.8181818 15.4545455,31.9663661 15.4545455,32.1499234 C15.4549331,32.3328434 15.2740227,32.481665 15.0504082,32.481665 Z" id="Shape"></path>
                        <path d="M9.42296937,32.7272727 C9.23973073,32.7272727 9.09090909,32.5390042 9.09090909,32.3075993 L9.09090909,24.965128 C9.09090909,24.7329168 9.23973073,24.5454545 9.42296937,24.5454545 C9.606208,24.5454545 9.75471097,24.7329168 9.75471097,24.965128 L9.75471097,32.3075993 C9.75471097,32.5390042 9.606208,32.7272727 9.42296937,32.7272727 Z" id="Shape"></path>
                        <path d="M9.60058173,21.8181818 L9.49032736,21.8181818 C6.2626694,21.8181818 3.63636364,19.1332335 3.63636364,15.8330177 L3.63636364,5.98516411 C3.63636364,2.68494827 6.2626694,0 9.49032736,0 L9.60058173,0 C12.8286279,0 15.4545455,2.68494827 15.4545455,5.98516411 L15.4545455,15.8330177 C15.4545455,19.1332335 12.8286279,21.8181818 9.60058173,21.8181818 Z M9.48993914,0.826443274 C6.70834553,0.826443274 4.44502511,3.14064322 4.44502511,5.98516411 L4.44502511,15.8330177 C4.44502511,18.6775386 6.70834553,20.9917385 9.48993914,20.9917385 L9.60019351,20.9917385 C12.3821753,20.9917385 14.6451075,18.6775386 14.6451075,15.8330177 L14.6451075,5.98516411 C14.6451075,3.14064322 12.3821753,0.826443274 9.60019351,0.826443274 L9.48993914,0.826443274 Z" id="Shape"></path>
                        <path d="M9.60421689,24.5454545 L9.48627692,24.5454545 C6.95222878,24.5454545 4.57017369,23.6415397 2.77864899,21.9988887 C0.986709012,20.3569988 0,18.1735212 0,15.8515068 C0,15.6330448 0.193936494,15.4545455 0.432308115,15.4545455 C0.6715103,15.4545455 0.865031512,15.6330448 0.865031512,15.8515068 C0.865031512,17.96191 1.7620397,19.9459554 3.39035874,21.4386518 C5.01867778,22.9309676 7.18354061,23.7530543 9.48586164,23.7530543 L9.60380161,23.7530543 C11.9069532,23.7530543 14.071816,22.9309676 15.7005503,21.4382712 C17.3288694,19.9455748 18.2258776,17.9615294 18.2258776,15.8511262 C18.2258776,15.6326642 18.4193988,15.4549261 18.6581857,15.4549261 C18.8969726,15.4549261 19.0909091,15.6326642 19.0909091,15.8511262 C19.0909091,18.1735212 18.1042001,20.3566182 16.3122601,21.9985081 C14.5203201,23.6415397 12.138265,24.5454545 9.60421689,24.5454545 Z" id="Shape"></path>
                    </g>
                </g>
            </g>
        </g>
    </g>
</svg>