<?xml version="1.0" encoding="UTF-8"?>
<svg width="60px" height="60px" viewBox="0 0 60 60" version="1.1" xmlns="http://www.w3.org/2000/svg" xmlns:xlink="http://www.w3.org/1999/xlink">
    <!-- Generator: Sketch 52.2 (67145) - http://www.bohemiancoding.com/sketch -->
    <title>mute</title>
    <desc>Created with Sketch.</desc>
    <g id="Final" stroke="none" stroke-width="1" fill="none" fill-rule="evenodd">
        <g id="All-Icons" transform="translate(-1015.000000, -730.000000)">
            <g id="mute" transform="translate(1015.000000, 730.000000)">
                <circle id="Path-Copy-2" fill="#838d9a" cx="30" cy="30" r="30"></circle>
                <path d="M40.9718975,16.1904789 L36.5322055,20.6298618 L36.5322055,20.2487073 C36.5322055,16.7976056 33.7345998,14 30.2834982,14 C26.8323966,14 24.0347909,16.7976056 24.0347909,20.2487073 L24.0347909,31.4688062 C24.0351001,31.9674292 24.0950708,32.4641974 24.2134667,32.9486005 L22.2239209,34.9381463 C21.7293165,33.814158 21.4749044,32.5992862 21.4773775,31.3711218 C21.4773775,30.9340153 21.1231172,30.5797549 20.6860105,30.5797549 C20.2492131,30.5797549 19.8946436,30.9340153 19.8946436,31.3711218 C19.8909341,33.0240276 20.2825989,34.654058 21.0371796,36.1248876 L18.2435926,38.9184746 C18.0423505,39.1181711 17.9632138,39.4099877 18.0361679,39.6841839 C18.1091221,39.958071 18.3230384,40.1719874 18.5969256,40.2452507 C18.8711218,40.3182048 19.1632475,40.2390681 19.362944,40.0375168 L21.8928451,37.5076158 C22.2084645,37.9379215 22.5565423,38.3434971 22.9339872,38.7206328 C24.6403721,40.4350551 26.8954586,41.4947448 29.3044908,41.7139164 L29.3044908,45.3569863 L26.3699415,45.3569863 C25.932835,45.3569863 25.5785746,45.7112466 25.5785746,46.1483532 C25.5785746,46.5854598 25.932835,46.9397201 26.3699415,46.9397201 L34.1967457,46.9397201 C34.6338523,46.9397201 34.9881127,46.5854598 34.9881127,46.1483532 C34.9881127,45.7112466 34.6338523,45.3569863 34.1967457,45.3569863 L30.8862973,45.3569863 L30.8862973,41.7426652 C36.383515,41.4304463 40.6791535,36.8776136 40.6720437,31.371431 C40.6720437,30.9343244 40.3177833,30.5800641 39.8806767,30.5800641 C39.4435701,30.5800641 39.0893098,30.9343244 39.0893098,31.371431 C39.0868368,34.9332003 36.9408723,38.1431823 33.6508262,39.5064355 C30.360471,40.8696886 26.5730384,40.1181992 24.0524112,37.6022089 C23.674348,37.2241457 23.3312163,36.8126967 23.0273438,36.3731172 L24.8502698,34.5501911 C25.9597291,36.5063512 28.0342851,37.7156588 30.2831891,37.7175135 C33.7287264,37.7175135 36.5318963,34.8973415 36.5318963,31.4307835 L36.5318963,22.8685645 L42.0909397,17.3095211 C42.4000674,17.0003934 42.4000674,16.4992974 42.0909397,16.1904789 C41.7818121,15.8813512 41.2807161,15.8813512 40.9718975,16.1904789 Z M25.6172156,31.4691154 L25.6172156,20.2490164 C25.6172156,17.6721279 27.7063006,15.5830429 30.2831891,15.5830429 C32.8600776,15.5830429 34.9491625,17.6721279 34.9491625,20.2490164 L34.9491625,22.2129047 L25.6187613,31.543306 C25.6187613,31.5182667 25.6172156,31.4938456 25.6172156,31.4691154 Z M34.9491625,31.4310926 C34.9491625,34.024674 32.8560589,36.1350888 30.2831891,36.1350888 C28.4444975,36.1329249 26.7779901,35.0525236 26.0255733,33.3748876 L34.9491625,24.4512983 L34.9491625,31.4310926 Z" id="Shape" fill="#000" fill-rule="nonzero"></path>
            </g>
        </g>
    </g>
</svg>