<?xml version="1.0" encoding="UTF-8"?>
<svg width="25px" height="28px" viewBox="0 0 25 28" version="1.1" xmlns="http://www.w3.org/2000/svg" xmlns:xlink="http://www.w3.org/1999/xlink">
    <!-- Generator: Sketch 58 (84663) - https://sketch.com -->
    <title>product</title>
    <desc>Created with Sketch.</desc>
    <g id="Page-1" stroke="none" stroke-width="1" fill="none" fill-rule="evenodd">
        <g id="16_Salesman-Prospective_Billing-Step_1" transform="translate(-1105.000000, -98.000000)" fill="#3E5A77" fill-rule="nonzero">
            <g id="Side-Panel-Chat-Expand-view" transform="translate(268.000000, 0.000000)">
                <g id="Side-Panel-(Chat)">
                    <g id="Group-11" transform="translate(766.000000, 81.000000)">
                        <g id="Step-navigation" transform="translate(42.000000, 17.000000)">
                            <g id="Group-6">
                                <g id="product" transform="translate(29.000000, 0.000000)">
                                    <path d="M14.4336,4.19039941 C14.4898875,4.19039941 14.545477,4.20054274 14.5977123,4.22021228 L14.6732175,4.25678408 L19.3292175,7.05038408 C19.4462206,7.12070698 19.5264873,7.23881443 19.5488018,7.37348843 C19.5666533,7.48122763 19.5459778,7.59089331 19.4919022,7.6838525 L19.445163,7.75014829 L14.9718336,13.0368 L22.3488,13.0368 C22.5084971,13.0367043 22.6550236,13.118333 22.7397013,13.2495618 L22.7766608,13.3191608 L24.1734608,16.5783608 C24.2352052,16.7221769 24.2205079,16.8874 24.1343478,17.0180594 C24.0654197,17.1225869 23.9581445,17.1937885 23.8378583,17.2180335 L23.7456,17.2272 L22.8144,17.2272 L22.8144,27.4704 C22.8144712,27.5939066 22.76544,27.7123752 22.6781076,27.7997076 C22.6126083,27.8652069 22.5295949,27.9091218 22.4400775,27.9269855 L22.3488,27.9360001 L1.8624,27.9360001 C1.73889338,27.9360001 1.62042481,27.88704 1.53309242,27.7997076 C1.46759313,27.7342083 1.42363822,27.6511949 1.40578452,27.5616775 L1.3968,27.4704 L1.3968,17.2272 L0.4656,17.2272 C0.309089843,17.2273064 0.163012269,17.1487188 0.0768521885,17.0180594 C0.00792412446,16.9135318 -0.0152677375,16.7868836 0.00982575457,16.6667715 L0.037739208,16.5783608 L1.43453921,13.3191608 C1.49724852,13.172291 1.62991961,13.0696672 1.78387435,13.0434138 L1.8624,13.0368 L9.2393664,13.0368 L4.76603408,7.75014829 C4.67796498,7.64584655 4.64008091,7.50816243 4.66239534,7.37348843 C4.68024688,7.26574923 4.7351879,7.16861262 4.8163558,7.09806222 L4.88197954,7.05038408 L9.53797954,4.25678408 C9.58619719,4.22774229 9.63909717,4.20791859 9.69402327,4.19792966 L9.7776,4.19039941 L14.4336,4.19039941 Z M13.0368,17.2272 L2.328,17.2272 L2.328,27.0048 L13.0368,27.0048 L13.0368,17.2272 Z M15.8304,14.6839909 L14.8614608,16.9448392 C14.7987515,17.091709 14.6660804,17.1943328 14.5121256,17.2205862 L14.4336,17.2272 L13.968,17.2272 L13.968,27.0048 L21.8832,27.0048 L21.8832,17.2272 L17.2272,17.2272 C17.0675029,17.2272957 16.9209764,17.145667 16.8362987,17.0144382 L16.7993392,16.9448392 L15.8304,14.6839909 Z M11.64,24.6768 L11.64,25.608 L8.8464,25.608 L8.8464,24.6768 L11.64,24.6768 Z M7.9152,24.6768 L7.9152,25.608 L3.7248,25.608 L3.7248,24.6768 L7.9152,24.6768 Z M9.7776,22.8144 L9.7776,23.7456 L7.4496,23.7456 L7.4496,22.8144 L9.7776,22.8144 Z M6.5184,22.8144 L6.5184,23.7456 L5.1216,23.7456 L5.1216,22.8144 L6.5184,22.8144 Z M7.4496,18.1584 C8.47817512,18.1584 9.312,18.9922249 9.312,20.0208 C9.312,21.0493751 8.47817512,21.8832 7.4496,21.8832 C6.42144564,21.8821849 5.58821508,21.0489544 5.5872,20.0208 C5.5872,18.9922249 6.42102488,18.1584 7.4496,18.1584 Z M7.4496,19.0896 C6.9355896,19.0902685 6.51906851,19.5067896 6.5184,20.0208 C6.5184,20.5350876 6.93531244,20.952 7.4496,20.952 C7.96388756,20.952 8.3808,20.5350876 8.3808,20.0208 C8.3808,19.5065124 7.96388756,19.0896 7.4496,19.0896 Z M15.1242705,13.968 L2.16931421,13.968 L1.17172954,16.296 L14.1266858,16.296 L15.1242705,13.968 Z M22.0418858,13.968 L16.5365295,13.968 L17.5341142,16.296 L23.0394705,16.296 L22.0418858,13.968 Z M14.6866903,7.9152 L9.52450973,7.9152 L11.494358,13.0368 L12.716842,13.0368 L14.6866903,7.9152 Z M18.0855918,7.9152 L15.684758,7.9152 L13.7149097,13.0368 L13.752078,13.0368 L18.0855918,7.9152 Z M8.52644317,7.9152 L6.1256082,7.9152 L10.459122,13.0368 L10.4962914,13.0368 L8.52644317,7.9152 Z M12.3784125,5.1216 L11.8327875,5.1216 L9.9703875,6.984 L14.2408125,6.984 L12.3784125,5.1216 Z M14.3044688,5.1216 L13.6951875,5.1216 L15.5575875,6.984 L17.4087054,6.984 L14.3044688,5.1216 Z M10.5160125,5.1216 L9.90673125,5.1216 L6.80249457,6.984 L8.6536125,6.984 L10.5160125,5.1216 Z M19.675092,2.94561095 L20.3333681,3.60388706 L19.0167747,4.92048041 L18.3584986,4.26220431 L19.675092,2.94561095 Z M4.5319854,2.94411224 L5.84857876,4.2607056 L5.19030266,4.91898171 L3.8737093,3.60238835 L4.5319854,2.94411224 Z M8.26167543,0.670613458 L8.97497463,2.39147106 L8.11454583,2.74812066 L7.40124663,1.02726306 L8.26167543,0.670613458 Z M15.9559123,0.669427225 L16.8163411,1.02607683 L16.1030419,2.74693443 L15.2426131,2.39028483 L15.9559123,0.669427225 Z M12.5712,-9.19597731e-13 L12.5712,1.8624 L11.64,1.8624 L11.64,-9.19597731e-13 L12.5712,-9.19597731e-13 Z" id="Combined-Shape"></path>
                                </g>
                            </g>
                        </g>
                    </g>
                </g>
            </g>
        </g>
    </g>
</svg>