<?xml version="1.0" encoding="UTF-8"?>
<svg width="47px" height="30px" viewBox="0 0 47 30" version="1.1" xmlns="http://www.w3.org/2000/svg" xmlns:xlink="http://www.w3.org/1999/xlink">
    <!-- Generator: Sketch 58 (84663) - https://sketch.com -->
    <title>shipped</title>
    <desc>Created with Sketch.</desc>
    <g id="Page-1" stroke="none" stroke-width="1" fill="none" fill-rule="evenodd" opacity="0.616489955">
        <g id="19_Salesman-Prospective_Cash-ondelivery" transform="translate(-1119.000000, -424.000000)" fill="#000000" fill-rule="nonzero">
            <g id="Group-5" transform="translate(1119.000000, 408.000000)">
                <g id="shipped" transform="translate(23.500000, 31.000000) scale(-1, 1) translate(-23.500000, -31.000000) translate(0.000000, 16.000000)">
                    <path d="M42.85422,12.36267 L41.66091,7.58952 C41.98716,7.52022 42.23196,7.23078 42.23196,6.88401 L42.23196,6.11442 C42.23196,4.44348 40.87251,3.08412 39.20166,3.08412 L33.76638,3.08412 L33.76638,1.4967 C33.76638,0.67446 33.0975,0.00558 32.27526,0.00558 L4.56948,0.00558 C3.74724,0.00558 3.07836,0.67446 3.07836,1.4967 L3.07836,14.58 C3.07836,14.97843 3.40137,15.30153 3.79989,15.30153 C4.19832,15.30153 4.52142,14.97852 4.52142,14.58 L4.52142,1.4967 C4.52142,1.47015 4.54293,1.44864 4.56948,1.44864 L32.27517,1.44864 C32.30172,1.44864 32.32323,1.47015 32.32323,1.4967 L32.32323,14.58018 C32.32323,14.97861 32.64624,15.30171 33.04476,15.30171 C33.44319,15.30171 33.76629,14.9787 33.76629,14.58018 L33.76629,13.76226 L42.2775,13.76226 C42.27822,13.76226 42.27876,13.76244 42.27939,13.76244 C42.28011,13.76244 42.28074,13.76235 42.28137,13.76235 C43.3287,13.76307 44.21799,14.45049 44.52345,15.39774 L42.27993,15.39774 C41.8815,15.39774 41.5584,15.72075 41.5584,16.11927 L41.5584,17.65845 C41.5584,18.90504 42.57252,19.91916 43.81911,19.91916 L44.63685,19.91916 L44.63685,23.09373 L42.75027,23.09373 C42.13053,21.30426 40.42944,20.01528 38.43189,20.01528 C36.43434,20.01528 34.73316,21.30426 34.11351,23.09373 L33.76611,23.09373 L33.76611,17.65836 C33.76611,17.25993 33.4431,16.93683 33.04458,16.93683 C32.64615,16.93683 32.32305,17.25984 32.32305,17.65836 L32.32305,23.09355 L17.35353,23.09355 C16.73379,21.30408 15.0327,20.0151 13.03515,20.0151 C11.0376,20.0151 9.33642,21.30408 8.71677,23.09355 L4.56948,23.09355 C4.54293,23.09355 4.52142,23.07204 4.52142,23.04549 L4.52142,21.45816 L7.64793,21.45816 C8.04636,21.45816 8.36946,21.13515 8.36946,20.73663 C8.36946,20.33811 8.04645,20.0151 7.64793,20.0151 L0.72153,20.0151 C0.3231,20.0151 0,20.33811 0,20.73663 C0,21.13515 0.32301,21.45816 0.72153,21.45816 L3.07845,21.45816 L3.07845,23.04549 C3.07845,23.86773 3.74733,24.53661 4.56957,24.53661 L8.46693,24.53661 C8.46675,24.55263 8.46567,24.56856 8.46567,24.58467 C8.46567,27.10431 10.5156,29.15415 13.03515,29.15415 C15.5547,29.15415 17.60463,27.10431 17.60463,24.58467 C17.60463,24.56847 17.60355,24.55263 17.60337,24.53661 L33.86367,24.53661 C33.86349,24.55263 33.86241,24.56856 33.86241,24.58467 C33.86241,27.10431 35.91234,29.15415 38.43189,29.15415 C40.95144,29.15415 43.00137,27.10431 43.00137,24.58467 C43.00137,24.56847 43.00029,24.55263 43.00011,24.53661 L45.35838,24.53661 C45.75681,24.53661 46.07991,24.2136 46.07991,23.81508 L46.07991,16.11909 C46.07991,14.21901 44.67807,12.64032 42.85422,12.36267 Z M33.76638,4.52709 L39.20166,4.52709 C40.07691,4.52709 40.78899,5.23917 40.78899,6.11442 L40.78899,6.16248 L33.76638,6.16248 L33.76638,4.52709 Z M33.76638,12.31929 L33.76638,7.60545 L40.17753,7.60545 L41.35599,12.31929 L33.76638,12.31929 Z M13.03515,27.71136 C11.3112,27.71136 9.90864,26.30889 9.90864,24.58485 C9.90864,22.86081 11.3112,21.45834 13.03515,21.45834 C14.7591,21.45834 16.16166,22.86081 16.16166,24.58485 C16.16166,26.30889 14.7591,27.71136 13.03515,27.71136 Z M38.43207,27.71136 C36.70812,27.71136 35.30556,26.30889 35.30556,24.58485 C35.30556,22.86081 36.70812,21.45834 38.43207,21.45834 C40.15602,21.45834 41.55858,22.86081 41.55858,24.58485 C41.55858,26.30889 40.15602,27.71136 38.43207,27.71136 Z M44.63703,18.4761 L43.81929,18.4761 C43.36839,18.4761 43.00155,18.10926 43.00155,17.65836 L43.00155,16.84062 L44.63694,16.84062 L44.63694,18.4761 L44.63703,18.4761 Z" id="Shape"></path>
                    <path d="M13.03515,23.09373 C12.21291,23.09373 11.54403,23.76261 11.54403,24.58485 C11.54403,25.40709 12.21291,26.07597 13.03515,26.07597 C13.85739,26.07597 14.52627,25.40709 14.52627,24.58485 C14.52627,23.76261 13.85739,23.09373 13.03515,23.09373 Z" id="Path"></path>
                    <path d="M38.43207,23.09373 C37.60983,23.09373 36.94095,23.76261 36.94095,24.58485 C36.94095,25.40709 37.60983,26.07597 38.43207,26.07597 C39.25431,26.07597 39.92319,25.40709 39.92319,24.58485 C39.92319,23.76261 39.25431,23.09373 38.43207,23.09373 Z" id="Path"></path>
                    <path d="M29.9664,20.01537 L19.19196,20.01537 C18.79353,20.01537 18.47043,20.33838 18.47043,20.7369 C18.47043,21.13542 18.79344,21.45843 19.19196,21.45843 L29.9664,21.45843 C30.36483,21.45843 30.68793,21.13542 30.68793,20.7369 C30.68793,20.33838 30.36492,20.01537 29.9664,20.01537 Z" id="Path"></path>
                    <path d="M11.49597,16.93692 L2.26071,16.93692 C1.86228,16.93692 1.53918,17.25993 1.53918,17.65845 C1.53918,18.05697 1.86219,18.37998 2.26071,18.37998 L11.49597,18.37998 C11.8944,18.37998 12.2175,18.05697 12.2175,17.65845 C12.2175,17.25993 11.8944,16.93692 11.49597,16.93692 Z" id="Path"></path>
                    <path d="M25.08939,7.1433 C24.80769,6.8616 24.35076,6.8616 24.06906,7.14339 L17.65278,13.55958 L14.31495,10.22175 C14.03316,9.93996 13.57632,9.93996 13.29462,10.22175 C13.01283,10.50354 13.01283,10.96029 13.29462,11.24208 L17.14266,15.09012 C17.28351,15.23106 17.46819,15.30144 17.65278,15.30144 C17.83737,15.30144 18.02214,15.23106 18.1629,15.09012 L25.0893,8.16372 C25.37109,7.88184 25.37109,7.42509 25.08939,7.1433 Z" id="Path" transform="translate(19.191966, 11.116738) scale(-1, 1) translate(-19.191966, -11.116738) "></path>
                </g>
            </g>
        </g>
    </g>
</svg>