<?xml version="1.0" encoding="UTF-8"?>
<svg width="60px" height="60px" viewBox="0 0 60 60" version="1.1" xmlns="http://www.w3.org/2000/svg" xmlns:xlink="http://www.w3.org/1999/xlink">
    <!-- Generator: Sketch 52.2 (67145) - http://www.bohemiancoding.com/sketch -->
    <title>video</title>
    <desc>Created with Sketch.</desc>
    <defs>
        <path d="M33.215983,17.488125 L19.8576267,43" id="path-1"></path>
    </defs>
    <g id="Final" stroke="none" stroke-width="1" fill="none" fill-rule="evenodd">
        <g id="All-Icons" transform="translate(-925.000000, -730.000000)">
            <g id="video" transform="translate(925.000000, 730.000000)">
                <circle id="Path-Copy-3" fill="#d0021b" cx="30" cy="30" r="30"></circle>
                <g id="Line-2" stroke-linecap="square">
                    <use stroke="#d0021b" stroke-width="5" xlink:href="#path-1"></use>
                    <use stroke="#FFFFFF" stroke-width="2" xlink:href="#path-1"></use>
                </g>
                <path d="M43.9869333,36.7233795 L43.9850667,24.1825193 C43.9850667,24.0545418 43.9138222,23.9378563 43.7999556,23.8804546 C43.6867111,23.8236803 43.5513778,23.8355998 43.4490222,23.9121354 L35.6102667,29.8241969 L35.6102667,23.9569902 C35.6102667,22.8782774 34.7391556,22 33.6692444,22 L17.9425778,22 C16.8711111,22 16,22.8782774 16,23.9569902 L16,37.0442644 C16,38.1223499 16.8711111,39 17.9425778,39 L33.6692444,39 C34.7391556,39 35.6102667,38.1223499 35.6102667,37.0442644 L35.6102667,31.1739211 L43.4508889,37.0888057 C43.5103111,37.1336605 43.5806222,37.1559311 43.6518667,37.1559311 C43.6565333,37.1559311 43.6618222,37.1559311 43.6649333,37.1559311 C43.8500444,37.1559311 44,37.0041146 44,36.818108 C44,36.7854863 43.9953333,36.7538056 43.9869333,36.7233795 Z M35,36.772976 C35,37.4494778 34.4381514,38 33.7478714,38 L18.2533547,38 C17.5621552,38 17,37.4494778 17,36.772976 L17,24.2282267 C17,23.5514242 17.5621552,23 18.2533547,23 L33.7478714,23 C34.4384579,23 35,23.5514242 35,24.2282267 L35,36.772976 Z M36,30.4980131 L42.9982535,25 L43,36 L36,30.4980131 Z" id="Shape-Copy-5" stroke="#FFFFFF" fill="#FFFFFF" fill-rule="nonzero"></path>
            </g>
        </g>
    </g>
</svg>